<?xml version="1.0" encoding="UTF-8"?>
<svg width="10px" height="14px" viewBox="0 0 10 14" version="1.1" xmlns="http://www.w3.org/2000/svg" xmlns:xlink="http://www.w3.org/1999/xlink">
    <!-- Generator: Sketch 51.1 (57501) - http://www.bohemiancoding.com/sketch -->
    <title>ArrowBlack</title>
    <desc>Created with Sketch.</desc>
    <defs></defs>
    <g id="Page-2" stroke="none" stroke-width="1" fill="none" fill-rule="evenodd">
        <g id="iPhone-7" transform="translate(-343.000000, -620.000000)" fill="#1E1E1E" fill-rule="nonzero">
            <g id="Group-15-Copy" transform="translate(338.000000, 617.000000)">
                <g id="ArrowBlack" transform="translate(3.000000, 3.000000)">
                    <path d="M9.84243723,5.26133612 L9.84258893,8.45158912 L3.86944983,2.47845012 C3.48543253,2.09443212 2.86282533,2.09370712 2.47814893,2.47838412 C2.09416813,2.86236412 2.09419773,3.48566712 2.47821503,3.86968512 L8.45135413,9.84282412 L5.26110103,9.84267212 C4.98979743,9.84265912 4.74354233,9.95256012 4.56546433,10.1306381 C4.38738623,10.3087161 4.27748513,10.5549711 4.27749813,10.8262751 C4.27752393,11.3702741 4.71719593,11.8099461 5.26119463,11.8099711 L10.8263985,11.8102361 C11.407962,11.8046991 11.8100256,11.3344581 11.8100014,10.8266331 L11.8097368,5.26142912 C11.8097109,4.71743112 11.3700389,4.27775912 10.8260402,4.27773312 C10.2820415,4.27770712 9.84241133,4.71733712 9.84243723,5.26133612 Z" id="Arrow-1" transform="translate(7.000092, 7.000196) rotate(45.000000) translate(-7.000092, -7.000196) "></path>
                </g>
            </g>
        </g>
    </g>
</svg>