<?xml version="1.0" encoding="UTF-8"?>
<svg width="70px" height="70px" viewBox="0 0 70 70" version="1.1" xmlns="http://www.w3.org/2000/svg" xmlns:xlink="http://www.w3.org/1999/xlink">
    <!-- Generator: Sketch 46.2 (44496) - http://www.bohemiancoding.com/sketch -->
    <title>Behance</title>
    <desc>Created with Sketch.</desc>
    <defs>
        <polygon id="path-1" points="15.688307 0.376428571 0.000144186047 0.376428571 0.000144186047 18.9385 15.688307 18.9385"></polygon>
        <polygon id="path-3" points="13.87672 14.2857143 0.322688372 14.2857143 0.322688372 0.118 13.87672 0.118"></polygon>
        <polygon id="path-5" points="0 19.6235714 30.4585814 19.6235714 30.4585814 0.714285714 0 0.714285714"></polygon>
    </defs>
    <g id="Page-1" stroke="none" stroke-width="1" fill="none" fill-rule="evenodd">
        <g id="iPad-Pro" transform="translate(-813.000000, -733.000000)">
            <g id="Behance" transform="translate(813.000000, 733.000000)">
                <circle id="Oval-Copy-9" fill="#262626" cx="35" cy="35" r="35"></circle>
                <g id="Page-1" transform="translate(20.000000, 24.000000)">
                    <g id="Group-3" transform="translate(0.000000, 0.337857)">
                        <mask id="mask-2" fill="white">
                            <use xlink:href="#path-1"></use>
                        </mask>
                        <g id="Clip-2"></g>
                        <path d="M8.52802791,15.7770714 C8.93463256,15.7770714 9.32105116,15.7406429 9.6844,15.6606429 C10.0527953,15.5806429 10.3800977,15.4542143 10.656214,15.2663571 C10.9316093,15.0863571 11.161586,14.8392143 11.3266791,14.5263571 C11.493214,14.2149286 11.5739581,13.8113571 11.5739581,13.3227857 C11.5739581,12.3663571 11.3014465,11.6863571 10.7614698,11.2742143 C10.2193302,10.8677857 9.49767907,10.6656429 8.60949302,10.6656429 L4.12530698,10.6656429 L4.12530698,15.7770714 L8.52802791,15.7770714 Z M8.30021395,7.87492857 C9.02979535,7.87492857 9.63537674,7.7035 10.1147953,7.35492857 C10.5898884,7.01135714 10.8191442,6.44492857 10.8191442,5.66707143 C10.8191442,5.23492857 10.7427256,4.8785 10.5898884,4.60064286 C10.4305628,4.32421429 10.2193302,4.10707143 9.95402791,3.95492857 C9.69016744,3.79707143 9.3909814,3.6885 9.04565581,3.62992857 C8.70537674,3.5635 8.34995814,3.53778571 7.98444651,3.53778571 L4.12530698,3.53778571 L4.12530698,7.87492857 L8.30021395,7.87492857 Z M8.8329814,0.376357143 C9.72909767,0.376357143 10.5379814,0.452785714 11.2776558,0.610642857 C12.0122837,0.765642857 12.6387721,1.02421429 13.1693767,1.37707143 C13.6913302,1.73135714 14.1000977,2.20064286 14.3927953,2.79278571 C14.6775628,3.37635714 14.8210279,4.10707143 14.8210279,4.97064286 C14.8210279,5.90564286 14.6076326,6.68564286 14.1786791,7.30992857 C13.7475628,7.93278571 13.1138651,8.44421429 12.268214,8.84064286 C13.4195395,9.16921429 14.2745628,9.74778571 14.840493,10.5692143 C15.409307,11.3970714 15.688307,12.3877857 15.688307,13.5492143 C15.688307,14.4906429 15.5066326,15.3006429 15.1425628,15.9820714 C14.7756093,16.6727857 14.2760047,17.2313571 13.6603302,17.6635 C13.0396093,18.0985 12.3280512,18.4177857 11.5292605,18.6256429 C10.7405628,18.8335 9.92086512,18.9385 9.08026047,18.9385 L0.000144186047,18.9385 L0.000144186047,0.376357143 L8.8329814,0.376357143 L8.8329814,0.376357143 Z" id="Fill-1" fill="#F4F4F4" mask="url(#mask-2)"></path>
                    </g>
                    <g id="Group-6" transform="translate(16.581395, 5.337857)">
                        <mask id="mask-4" fill="white">
                            <use xlink:href="#path-3"></use>
                        </mask>
                        <g id="Clip-5"></g>
                        <path d="M9.26726977,3.65371429 C8.8246186,3.16871429 8.07557209,2.90514286 7.1599907,2.90514286 C6.56450233,2.90514286 6.07210698,3.00514286 5.67775814,3.20728571 C5.2906186,3.40728571 4.97557209,3.65514286 4.73333953,3.94728571 C4.49254884,4.24442857 4.3296186,4.55942857 4.23445581,4.89442857 C4.13929302,5.22157143 4.0816186,5.51871429 4.06431628,5.78014286 L10.1258977,5.78014286 C10.0372233,4.83871429 9.71208372,4.143 9.26726977,3.65371429 M4.98638605,10.7158571 C5.54438605,11.2558571 6.35110698,11.5272857 7.39645581,11.5272857 C8.14766512,11.5272857 8.79722326,11.3387143 9.34224651,10.9637143 C9.88222326,10.5887143 10.2109674,10.188 10.3371302,9.77228571 L13.6188047,9.77228571 C13.0918047,11.3894286 12.2915721,12.5451429 11.2000837,13.2401429 C10.1208512,13.9387143 8.80515349,14.2858571 7.27173488,14.2858571 C6.20331628,14.2858571 5.24159535,14.1151429 4.37864186,13.7772857 C3.51496744,13.4358571 2.79403721,12.9565714 2.18701395,12.3322857 C1.59585116,11.7051429 1.13733953,10.9637143 0.810037209,10.0922857 C0.485618605,9.22585714 0.322688372,8.26728571 0.322688372,7.228 C0.322688372,6.22228571 0.492827907,5.28442857 0.824455814,4.41585714 C1.16113023,3.54514286 1.62973488,2.79371429 2.24468837,2.16371429 C2.86108372,1.53085714 3.59138605,1.03014286 4.44280465,0.665142857 C5.29350233,0.301571429 6.23215349,0.118 7.27173488,0.118 C8.41945581,0.118 9.42443256,0.337285714 10.2859442,0.783 C11.1445721,1.22228571 11.8482,1.818 12.4018744,2.56442857 C12.953386,3.308 13.3477349,4.15942857 13.5935721,5.11442857 C13.8379674,6.068 13.9230372,7.06442857 13.853107,8.10728571 L4.06431628,8.10728571 C4.06431628,9.16942857 4.42622326,10.1758571 4.98638605,10.7158571" id="Fill-4" fill="#F4F4F4" mask="url(#mask-4)"></path>
                    </g>
                    <mask id="mask-6" fill="white">
                        <use xlink:href="#path-5"></use>
                    </mask>
                    <g id="Clip-8"></g>
                    <polygon id="Fill-7" fill="#F4F4F4" mask="url(#mask-6)" points="19.8832558 3.79071429 27.4775349 3.79071429 27.4775349 1.95928571 19.8832558 1.95928571"></polygon>
                </g>
            </g>
        </g>
    </g>
</svg>