<?xml version="1.0" encoding="UTF-8"?>
<svg width="70px" height="70px" viewBox="0 0 70 70" version="1.1" xmlns="http://www.w3.org/2000/svg" xmlns:xlink="http://www.w3.org/1999/xlink">
    <title>Group 14</title>
    <g id="Website-penstud.io" stroke="none" stroke-width="1" fill="none" fill-rule="evenodd">
        <g id="12.9″-iPad-Pro-Copy-2" transform="translate(-1042.000000, -725.000000)">
            <g id="Group-14" transform="translate(1042.000000, 725.000000)">
                <circle id="Oval-Copy-8" fill-opacity="0" fill="#262626" cx="35" cy="35" r="35"></circle>
                <g id="MarketBlack-Copy" transform="translate(16.000000, 16.000000)">
                    <rect id="Rectangle" fill-opacity="0" fill="#FFFFFF" x="0" y="0" width="38" height="38"></rect>
                    <g id="Group-9" transform="translate(5.000000, 6.000000)" stroke="#FFFFFF" stroke-linejoin="round">
                        <g id="Group-22-Copy-8" stroke-linecap="round" stroke-width="2.5">
                            <path d="M15.1353551,0.00169889532 C17.0775345,0.00911438017 22.3110474,0.0478396899 24.0058327,0.250071863 C25.1622836,0.387703769 26.0731491,0.793234796 26.3822691,1.30822271 C26.5461073,1.58045169 26.7383815,1.9389494 26.9285666,2.31023405 L27.0903587,2.62989568 C27.49,3.42830917 27.84,4.18903351 27.84,4.18903351 C27.84,4.18903351 28.8150455,5.98733455 28.7986949,7.11840362 C28.799608,7.14456294 28.8,7.17220697 28.8,7.1999426 C28.8,8.79056383 27.5106426,10.0799426 25.9200476,10.0799426 C24.3294527,10.0799426 23.04,8.79056383 23.04,7.1999426 L23.0419671,7.14264099 C23.0409663,7.14263684 23.0399655,7.14263268 23.0389646,7.14262853 L23.04,7.1999426 L23.04,7.1999426 C23.04,8.79056383 21.7506426,10.0799426 20.1600476,10.0799426 C18.5694527,10.0799426 17.28,8.79056383 17.28,7.1999426 L17.2809333,7.16404629 C17.280273,7.16405277 17.2796127,7.16405924 17.2789524,7.16406572 L17.28,7.1999426 L17.28,7.1999426 C17.28,8.79056383 15.9906426,10.0799426 14.4000476,10.0799426 C12.8094527,10.0799426 11.52,8.79056383 11.52,7.1999426 L11.5218658,7.17149954 C11.5211952,7.17149455 11.5205244,7.17148956 11.5198536,7.17148457 L11.52,7.1999426 L11.52,7.1999426 C11.52,8.79056383 10.2306426,10.0799426 8.64004763,10.0799426 C7.04945271,10.0799426 5.76,8.79056383 5.76,7.1999426 L5.76157408,7.1619356 C5.76090983,7.16193959 5.7602456,7.16194359 5.75958139,7.16194758 L5.76,7.1999426 L5.76,7.1999426 C5.76,8.79056383 4.47064256,10.0799426 2.88004763,10.0799426 C1.28945271,10.0799426 0,8.79056383 0,7.1999426 C0,7.05376617 0.0108899669,6.91013386 0.0319028482,6.76981258 C0.172004617,5.65391785 0.96,4.18903351 0.96,4.18903351 C0.96,4.18903351 1.31,3.42830917 1.70964134,2.62989568 L1.87143345,2.31023405 C2.06161846,1.9389494 2.25389273,1.58045169 2.41773091,1.30822271 C2.72685091,0.793234796 3.63771636,0.387703769 4.79416727,0.250071863 C6.48895257,0.0478396899 11.7224655,0.00911438017 13.6646449,0.00169889532 Z" id="Combined-Shape"></path>
                        </g>
                        <rect id="Rectangle-Copy" stroke-width="1.92" x="10.752" y="13.728" width="7.68" height="9.6" rx="1.728"></rect>
                        <path d="M23.04,7.1999426 C23.04,8.79056383 24.3294527,10.0799426 25.9200476,10.0799426 C26.165005,10.0799426 26.402818,10.0493622 26.6298773,9.99181073 C26.8481007,12.1405904 26.8759209,14.7287612 26.8794784,15.3555165 L26.8796081,15.5732296 C26.8756892,16.0704667 26.8325812,18.9037646 26.3583927,21.0706418 C26.0713527,22.3857003 25.2255491,23.4212527 24.1517018,23.7728782 C22.3674518,24.358216 15.6601885,24.4069942 14.5547019,24.411059 L14.2452981,24.411059 C13.6925548,24.4090266 11.7393673,24.3958159 9.70133442,24.309946 L9.14439209,24.2846793 C7.28749515,24.1941441 5.45932091,24.0389408 4.64829818,23.7728782 C3.57445091,23.4212527 2.72864727,22.3857003 2.44160727,21.0706418 C1.98322512,18.9759938 1.92766365,16.2586127 1.92092893,15.630629 L1.92101876,15.2788058 C1.92529757,14.6881407 1.94754738,12.9873555 2.0632464,11.2707725 L2.09891129,10.7808357 C2.11987491,10.5137329 2.14329491,10.2487882 2.1694591,9.99017486 C2.39679482,10.0493005 2.6348429,10.0799426 2.88004763,10.0799426 C4.47064256,10.0799426 5.76,8.79056383 5.76,7.1999426 C5.76,8.79056383 7.04945271,10.0799426 8.64004763,10.0799426 C10.2306426,10.0799426 11.52,8.79056383 11.52,7.1999426 C11.52,8.79056383 12.8094527,10.0799426 14.4000476,10.0799426 C15.9906426,10.0799426 17.28,8.79056383 17.28,7.1999426 C17.28,8.79056383 18.5694527,10.0799426 20.1600476,10.0799426 C21.7506426,10.0799426 23.04,8.79056383 23.04,7.1999426 Z" id="Combined-Shape" stroke-width="2.5"></path>
                    </g>
                </g>
            </g>
        </g>
    </g>
</svg>