<?xml version="1.0" encoding="UTF-8"?>
<svg width="70px" height="70px" viewBox="0 0 70 70" version="1.1" xmlns="http://www.w3.org/2000/svg" xmlns:xlink="http://www.w3.org/1999/xlink">
    <title>Group 11</title>
    <g id="Website-penstud.io" stroke="none" stroke-width="1" fill="none" fill-rule="evenodd">
        <g id="12.9″-iPad-Pro-Copy-2" transform="translate(-868.000000, -725.000000)">
            <g id="Group-11" transform="translate(868.000000, 725.000000)">
                <circle id="Oval-Copy-6" fill-opacity="0" fill="#262626" cx="35" cy="35" r="35"></circle>
                <g id="DownloadsBlack" transform="translate(16.000000, 16.000000)">
                    <rect id="Rectangle-Copy-6" fill-opacity="0" fill="#FFFFFF" x="0" y="0" width="38" height="38"></rect>
                    <g id="Group-7" transform="translate(1.000000, 3.000000)">
                        <path d="M30.534308,4.71651613 C27.8828876,4 18.2507398,4 18.2507398,4 C18.2507398,4 7.61859212,4 4.96717166,4.71651613 C3.50439893,5.11077419 2.35226257,6.27245161 1.96126257,7.74767742 C1.25073984,10.4213548 1.25073984,16 1.25073984,16 C1.25073984,16 1.25073984,21.5784516 1.96126257,24.2523226 C2.35226257,25.7275484 3.50439893,26.8892258 4.96717166,27.2836774 C7.61859212,28 18.2507398,28 18.2507398,28 C18.2507398,28 27.8828876,28 30.534308,27.2836774 C31.9970808,26.8892258 33.1492171,25.7275484 33.5402171,24.2523226 C34.2507398,21.5784516 34.2507398,16 34.2507398,16 C34.2507398,16 34.2507398,10.4213548 33.5402171,7.74767742 C33.1492171,6.27245161 31.9970808,5.11077419 30.534308,4.71651613 Z" id="Fill-1-Copy" stroke="#FFFFFF" stroke-width="2.5"></path>
                        <g id="Group-4" transform="translate(10.250740, 10.000000)" stroke="#FFFFFF" stroke-linecap="round" stroke-linejoin="round" stroke-width="1.575">
                            <path d="M15.12,8.58663831 L15.12,9.81 C15.12,11.549697 13.709697,12.96 11.97,12.96 L3.15,12.96 C1.41030304,12.96 -2.01262344e-14,11.549697 -2.0783375e-14,9.81 L-2.0783375e-14,8.58663831 L-2.0783375e-14,8.58663831" id="Rectangle"></path>
                            <g id="Group-2" transform="translate(4.056216, 0.000000)">
                                <polyline id="Path-4" points="0 6.56770241 3.50378381 9.48191898 6.931008 6.56770241"></polyline>
                                <line x1="3.53528381" y1="9.28973343" x2="3.53528381" y2="2.26385187e-13" id="Path-5"></line>
                            </g>
                        </g>
                        <path d="M10.939058,0.149274194 C10.0032626,-2.66453526e-14 6.80713271,-2.66453526e-14 6.80713271,-2.66453526e-14 C6.80713271,-2.66453526e-14 4.24065632,0.0346138651 3.30209126,0.149274194 C2.69493987,0.223447185 1.63115076,0.223447185 1.25073984,1.21662757 C0.423410914,3.3766257 -1.33226763e-14,14.2296158 -1.33226763e-14,16.2448318 C-1.33226763e-14,16.5715049 3.56242166,5.22331921 3.56242166,5.22331921 C3.56242166,5.22331921 10.0032626,5 10.939058,4.85076613 C11.4553308,4.76858871 11.8619671,4.52657258 11.9999671,4.21923387 C12.2507398,3.66217742 12.2507398,2.5 12.2507398,2.5 C12.2507398,2.5 12.2507398,1.33778226 11.9999671,0.780766129 C11.8619671,0.473427419 11.4553308,0.23141129 10.939058,0.149274194 Z" id="Fill-1-Copy" fill="#FFFFFF"></path>
                    </g>
                </g>
            </g>
        </g>
    </g>
</svg>