<?xml version="1.0" encoding="UTF-8"?>
<svg width="70px" height="70px" viewBox="0 0 70 70" version="1.1" xmlns="http://www.w3.org/2000/svg" xmlns:xlink="http://www.w3.org/1999/xlink">
    <!-- Generator: Sketch 46.2 (44496) - http://www.bohemiancoding.com/sketch -->
    <title>Dribbble</title>
    <desc>Created with Sketch.</desc>
    <defs></defs>
    <g id="Page-1" stroke="none" stroke-width="1" fill="none" fill-rule="evenodd">
        <g id="iPad-Pro" transform="translate(-483.000000, -623.000000)">
            <g id="Dribbble" transform="translate(483.000000, 623.000000)">
                <circle id="Oval" fill="#262626" cx="35" cy="35" r="35"></circle>
                <path d="M40.8481003,43.6141124 C40.7408538,42.9782448 40.1836679,39.9183833 38.8147779,36.1615048 C42.0946061,35.6371599 44.9762365,36.4953887 45.3343236,36.6082798 C44.8677927,39.5166792 43.1962349,42.0285058 40.8481003,43.6141124 M35.0000855,45.4018112 C32.5804533,45.4018112 30.3501701,44.5772786 28.575471,43.1953036 C28.7638793,42.8107042 30.8830674,38.7221654 36.7866725,36.6677187 C36.8095928,36.659765 36.8326841,36.6522389 36.85569,36.6444563 C38.3251556,40.4578658 38.9328004,43.6540519 39.0885388,44.5710354 C37.8318558,45.1056431 36.4499663,45.4018112 35.0000855,45.4018112 M24.5333714,34.949123 C24.5333714,34.8422185 24.5355095,34.7358272 24.5387594,34.629778 C24.9966525,34.6391001 30.0687121,34.7043546 35.2956549,33.1421814 C35.5953294,33.7277611 35.8814912,34.3222353 36.1443051,34.9160253 C36.0057569,34.9549386 35.8681496,34.9963319 35.731825,35.0403766 C30.3337496,36.7829189 27.4611846,41.5328113 27.2241133,41.9381074 C25.5523845,40.0849831 24.5333714,37.6337927 24.5333714,34.949123 M30.5502097,25.4896197 C30.8261087,25.8675483 32.6965087,28.456004 34.4307553,31.5347663 C29.5347886,32.8330993 25.2226057,32.8144552 24.7544498,32.8082119 C25.4331647,29.5647313 27.6219689,26.8689435 30.5502097,25.4896197 M35.0000855,24.4964347 C37.6594403,24.4964347 40.0899341,25.4926986 41.9383545,27.130389 C41.7500317,27.3980777 40.1745168,29.5129896 36.4526175,30.9061682 C34.7376137,27.7591581 32.8365963,25.1738668 32.5472701,24.7869582 C33.3343433,24.5976091 34.1555405,24.4964347 35.0000855,24.4964347 M43.1019024,28.3390933 C44.5595658,30.1178121 45.4424254,32.3832454 45.4654312,34.8503433 C45.1203437,34.7774772 41.6599754,34.0765262 38.1772854,34.5138936 C38.1039062,34.3348928 38.0288165,34.1551223 37.9518453,33.9744966 C37.7344445,33.4647762 37.5009652,32.9583058 37.2574796,32.4604732 C41.1273347,30.8825637 42.8812517,28.6371429 43.1019024,28.3390933 M35.0000855,22.6957364 C28.243212,22.6957364 22.7461858,28.1854075 22.7461858,34.9332156 C22.7461858,41.6809381 28.243212,47.1706092 35.0000855,47.1706092 C41.756788,47.1706092 47.2538142,41.6809381 47.2538142,34.9332156 C47.2538142,28.1854075 41.756788,22.6957364 35.0000855,22.6957364" id="Fill-1" fill="#F4F4F4"></path>
            </g>
        </g>
    </g>
</svg>