<?xml version="1.0" encoding="UTF-8"?>
<svg width="140px" height="140px" viewBox="0 0 140 140" version="1.1" xmlns="http://www.w3.org/2000/svg" xmlns:xlink="http://www.w3.org/1999/xlink">
    <!-- Generator: Sketch 52.5 (67469) - http://www.bohemiancoding.com/sketch -->
    <title>email</title>
    <desc>Created with Sketch.</desc>
    <defs>
        <polygon id="path-1" points="61 21.4999827 61 0 0 0 0 21.4999827 0 42.9999653 61 42.9999653"></polygon>
    </defs>
    <g id="Website" stroke="none" stroke-width="1" fill="none" fill-rule="evenodd">
        <g id="12.9″-iPad-Pro" transform="translate(-1736.000000, -1426.000000)">
            <g id="email" transform="translate(1736.000000, 1426.000000)">
                <circle id="Oval-Copy-6" fill="#262626" cx="70" cy="70" r="70"></circle>
                <g id="Page-1" transform="translate(40.000000, 49.000000)">
                    <mask id="mask-2" fill="white">
                        <use xlink:href="#path-1"></use>
                    </mask>
                    <g id="Clip-2"></g>
                    <path d="M40.6062843,20.9390243 L38.5408284,18.9578562 C40.8376232,17.3657559 44.7362285,13.6191705 50.2366442,7.71810001 L53.9246026,7.71810001 C47.6089473,14.5453492 43.1695079,18.952324 40.6062843,20.9390243 Z M53.9246026,35.805306 L51.9348876,35.805306 L50.2068058,35.805306 C44.7822239,29.9655666 40.9335993,26.2484404 38.6609322,24.6539273 C35.5849511,22.4958057 25.5010626,22.4663465 22.4727111,24.5655499 C20.1759164,26.1576501 16.2773111,29.9042355 10.7768954,35.805306 L7.08893695,35.805306 C13.4045922,28.9780568 17.8440317,24.5710821 20.4072553,22.5843817 C24.4221157,19.4725486 36.7148709,19.497266 40.7086147,22.5843817 C43.2791815,24.5713988 47.6845108,28.9783736 53.9246026,35.805306 Z M20.3610148,20.9390243 C17.7977911,18.952324 13.3583517,14.5453492 7.0426964,7.71810002 L10.7306548,7.71810002 C16.2310706,13.6191705 20.1296758,17.3657559 22.4264706,18.9578562 L20.3610148,20.9390243 Z M54.3322841,1.28372339 C49.5753239,-3.46774194e-05 30.5,-3.46774194e-05 30.5,-3.46774194e-05 C30.5,-3.46774194e-05 11.4246761,-3.46774194e-05 6.66771591,1.28372339 C4.04332955,1.99010242 1.97626136,4.07144113 1.27476136,6.71455403 C0,11.5048927 0,21.4999653 0,21.4999653 C0,21.4999653 0,31.4946911 1.27476136,36.2853766 C1.97626136,38.9284895 4.04332955,41.0098282 6.66771591,41.716554 C11.4246761,42.9999653 30.5,42.9999653 30.5,42.9999653 C30.5,42.9999653 49.5753239,42.9999653 54.3322841,41.716554 C56.9566705,41.0098282 59.0237386,38.9284895 59.7252386,36.2853766 C61,31.4946911 61,21.4999653 61,21.4999653 C61,21.4999653 61,11.5048927 59.7252386,6.71455403 C59.0237386,4.07144113 56.9566705,1.99010242 54.3322841,1.28372339 Z" id="Fill-1" fill="#F4F4F4" mask="url(#mask-2)" transform="translate(30.500000, 21.499965) rotate(-180.000000) translate(-30.500000, -21.499965) "></path>
                </g>
            </g>
        </g>
    </g>
</svg>