<?xml version="1.0" encoding="UTF-8"?>
<svg width="70px" height="70px" viewBox="0 0 70 70" version="1.1" xmlns="http://www.w3.org/2000/svg" xmlns:xlink="http://www.w3.org/1999/xlink">
    <!-- Generator: Sketch 46.2 (44496) - http://www.bohemiancoding.com/sketch -->
    <title>GitHub</title>
    <desc>Created with Sketch.</desc>
    <defs>
        <polygon id="path-1" points="6.18212079e-16 31.7743689 6.18212079e-16 -0.0004 32.579 -0.0004 32.579 31.7743689"></polygon>
    </defs>
    <g id="Page-1" stroke="none" stroke-width="1" fill="none" fill-rule="evenodd">
        <g id="iPad-Pro" transform="translate(-593.000000, -733.000000)">
            <g id="GitHub" transform="translate(593.000000, 733.000000)">
                <circle id="Oval-Copy-6" fill="#262626" cx="35" cy="35" r="35"></circle>
                <g id="Page-1" transform="translate(19.000000, 19.000000)">
                    <mask id="mask-2" fill="white">
                        <use xlink:href="#path-1"></use>
                    </mask>
                    <g id="Clip-2"></g>
                    <path d="M16.2886,-0.0005 C7.2936,-0.0005 -0.0004,7.2935 -0.0004,16.2905 C-0.0004,23.4865 4.6666,29.5925 11.1406,31.7465 C11.9556,31.8955 12.2526,31.3935 12.2526,30.9615 C12.2526,30.5745 12.2386,29.5505 12.2306,28.1905 C7.6996,29.1755 6.7436,26.0075 6.7436,26.0075 C6.0026,24.1255 4.9346,23.6245 4.9346,23.6245 C3.4556,22.6135 5.0466,22.6345 5.0466,22.6345 C6.6816,22.7495 7.5416,24.3125 7.5416,24.3125 C8.9946,26.8025 11.3536,26.0835 12.2826,25.6665 C12.4306,24.6135 12.8506,23.8955 13.3166,23.4885 C9.6996,23.0775 5.8966,21.6805 5.8966,15.4375 C5.8966,13.6595 6.5316,12.2055 7.5736,11.0665 C7.4056,10.6545 6.8466,8.9985 7.7326,6.7565 C7.7326,6.7565 9.1006,6.3175 12.2126,8.4255 C13.5116,8.0645 14.9056,7.8835 16.2906,7.8775 C17.6736,7.8835 19.0676,8.0645 20.3686,8.4255 C23.4786,6.3175 24.8436,6.7565 24.8436,6.7565 C25.7326,8.9985 25.1736,10.6545 25.0056,11.0665 C26.0496,12.2055 26.6806,13.6595 26.6806,15.4375 C26.6806,21.6955 22.8716,23.0725 19.2426,23.4765 C19.8276,23.9785 20.3486,24.9735 20.3486,26.4925 C20.3486,28.6705 20.3286,30.4275 20.3286,30.9615 C20.3286,31.3965 20.6216,31.9035 21.4486,31.7445 C27.9156,29.5865 32.5796,23.4845 32.5796,16.2905 C32.5796,7.2935 25.2856,-0.0005 16.2886,-0.0005" id="Fill-1" fill="#F4F4F4" mask="url(#mask-2)"></path>
                </g>
            </g>
        </g>
    </g>
</svg>