<?xml version="1.0" encoding="UTF-8"?>
<svg width="70px" height="70px" viewBox="0 0 70 70" version="1.1" xmlns="http://www.w3.org/2000/svg" xmlns:xlink="http://www.w3.org/1999/xlink">
    <title>Group 13</title>
    <g id="Website-penstud.io" stroke="none" stroke-width="1" fill="none" fill-rule="evenodd">
        <g id="12.9″-iPad-Pro-Copy-2" transform="translate(-955.000000, -725.000000)">
            <g id="Group-13" transform="translate(955.000000, 725.000000)">
                <circle id="Oval-Copy-7" fill-opacity="0" fill="#262626" cx="35" cy="35" r="35"></circle>
                <g id="IGBlack-Copy" transform="translate(16.000000, 16.000000)" fill="#FFFFFF">
                    <rect id="Rectangle" fill-opacity="0" x="0" y="0" width="38" height="38"></rect>
                    <g id="Page-1-Copy" transform="translate(5.000000, 5.000000)">
                        <g id="Group-3">
                            <path d="M13.7456625,0.00868105178 C10.012592,0.00868105178 9.54443721,0.0245044648 8.07837071,0.0913993075 C6.61525064,0.15813046 5.61608395,0.390516378 4.74170397,0.730337813 C3.83785971,1.08156302 3.07124263,1.55157295 2.3070809,2.31573467 C1.54286462,3.07995096 1.07290925,3.84651348 0.72162948,4.75035774 C0.381808044,5.62473772 0.14947669,6.62390441 0.082690974,8.08702448 C0.0157961313,9.55314554 2.72817466e-05,10.0211912 2.72817466e-05,13.7543163 C2.72817466e-05,17.4874414 0.0157961313,17.9555416 0.082690974,19.4216626 C0.14947669,20.8847281 0.381808044,21.8839494 0.72162948,22.7582748 C1.07290925,23.6621191 1.54286462,24.4287361 2.3070809,25.1928979 C3.07124263,25.9571142 3.83785971,26.4270695 4.74170397,26.7784039 C5.61608395,27.1181707 6.61525064,27.3505566 8.07837071,27.4173424 C9.54443721,27.4841826 10.012592,27.5000061 13.7456625,27.5000061 C17.4787876,27.5000061 17.9468332,27.4841826 19.4129543,27.4173424 C20.8760744,27.3505566 21.875241,27.1181707 22.749621,26.7784039 C23.6535199,26.4270695 24.4200824,25.9571142 25.1842441,25.1928979 C25.9484604,24.4287361 26.4184158,23.6621736 26.7696955,22.7582748 C27.109517,21.8839494 27.3419029,20.8847281 27.408634,19.4216626 C27.4755289,17.9555416 27.4913523,17.4874414 27.4913523,13.7543163 C27.4913523,10.0212458 27.4755289,9.55314554 27.408634,8.08702448 C27.3419029,6.62390441 27.109517,5.62473772 26.7696955,4.75035774 C26.4184158,3.84651348 25.9484604,3.07995096 25.1842441,2.31573467 C24.4200824,1.55157295 23.6535199,1.08156302 22.749621,0.730337813 C21.875241,0.390516378 20.8760744,0.15813046 19.4129543,0.0913993075 C17.9468332,0.0245044648 17.4787876,0.00868105178 13.7456625,0.00868105178 M13.7456625,2.48537257 C17.4159304,2.48537257 17.8506378,2.49934083 19.3000624,2.56547178 C20.6402509,2.62663746 21.3680734,2.85056603 21.8524335,3.03881009 C22.4940456,3.28816525 22.951997,3.58602736 23.4329742,4.06700455 C23.9139514,4.54803631 24.2118135,5.00593314 24.4612232,5.64754526 C24.6494127,6.13190539 24.8733413,6.85972783 24.934507,8.19991635 C25.0005834,9.64934098 25.0146062,10.0841029 25.0146062,13.7543163 C25.0146062,17.4245842 25.0005834,17.8593461 24.934507,19.3087162 C24.8733413,20.6489593 24.6494127,21.3767817 24.4612232,21.8611418 C24.2118135,22.5026994 23.9139514,22.9606508 23.4329742,23.441628 C22.951997,23.9226597 22.4940456,24.2205219 21.8524335,24.469877 C21.3680734,24.6580665 20.6402509,24.8820496 19.3000624,24.9431608 C17.850856,25.0092917 17.4162033,25.0233145 13.7456625,25.0233145 C10.0751217,25.0233145 9.64046896,25.0092917 8.19126258,24.9431608 C6.85107406,24.8820496 6.12319706,24.6580665 5.63883693,24.469877 C4.99727937,24.2205219 4.53932798,23.9226597 4.05835078,23.441628 C3.57737359,22.9606508 3.27945692,22.5026994 3.03010175,21.8611418 C2.84191226,21.3767817 2.61798369,20.6489593 2.55681801,19.3087708 C2.49068706,17.8593461 2.4767188,17.4245842 2.4767188,13.7543163 C2.4767188,10.0841029 2.49068706,9.64934098 2.55681801,8.19991635 C2.61798369,6.85972783 2.84191226,6.13190539 3.03010175,5.64754526 C3.27945692,5.00593314 3.57737359,4.54803631 4.05835078,4.06705912 C4.53932798,3.58602736 4.99727937,3.28816525 5.63883693,3.03881009 C6.12319706,2.85056603 6.85107406,2.62663746 8.19120801,2.56547178 C9.64068721,2.49934083 10.0753946,2.48537257 13.7456625,2.48537257" id="Fill-1"></path>
                        </g>
                        <path d="M13.7500269,18.2127225 C11.2853485,18.2127225 9.28727811,16.2146521 9.28727811,13.7499737 C9.28727811,11.2852954 11.2853485,9.28727811 13.7500269,9.28727811 C16.2147052,9.28727811 18.2127756,11.2852954 18.2127756,13.7499737 C18.2127756,16.2146521 16.2147052,18.2127225 13.7500269,18.2127225 M13.7500269,6.87500015 C9.95307129,6.87500015 6.87500015,9.95301814 6.87500015,13.7499737 C6.87500015,17.5469825 9.95307129,20.6250004 13.7500269,20.6250004 C17.5469825,20.6250004 20.6250004,17.5469825 20.6250004,13.7499737 C20.6250004,9.95301814 17.5469825,6.87500015 13.7500269,6.87500015" id="Fill-4"></path>
                        <path d="M22.9166672,6.30208347 C22.9166672,7.25134747 22.1471938,8.02083351 21.1979456,8.02083351 C20.2486973,8.02083351 19.4791671,7.25134747 19.4791671,6.30208347 C19.4791671,5.35281947 20.2486973,4.58333343 21.1979456,4.58333343 C22.1471938,4.58333343 22.9166672,5.35281947 22.9166672,6.30208347" id="Fill-6"></path>
                    </g>
                </g>
            </g>
        </g>
    </g>
</svg>