<?xml version="1.0" encoding="UTF-8"?>
<svg width="70px" height="70px" viewBox="0 0 70 70" version="1.1" xmlns="http://www.w3.org/2000/svg" xmlns:xlink="http://www.w3.org/1999/xlink">
    <!-- Generator: Sketch 46.2 (44496) - http://www.bohemiancoding.com/sketch -->
    <title>Instagram</title>
    <desc>Created with Sketch.</desc>
    <defs></defs>
    <g id="Page-1" stroke="none" stroke-width="1" fill="none" fill-rule="evenodd">
        <g id="iPad-Pro" transform="translate(-373.000000, -623.000000)">
            <g id="Instagram" transform="translate(373.000000, 623.000000)">
                <circle id="Social_button" fill="#262626" cx="35" cy="35" r="35"></circle>
                <g id="Instragram" transform="translate(23.000000, 23.000000)" fill="#F4F4F4">
                    <g id="Group-3">
                        <path d="M12.4960565,0.00789186508 C9.10235615,0.00789186508 8.67676091,0.0222767857 7.34397321,0.0830902778 C6.01386409,0.14375496 5.10553075,0.355014881 4.31063988,0.663943452 C3.48896329,0.983239087 2.79203869,1.41052083 2.09734623,2.10521329 C1.40260417,2.79995536 0.975372024,3.49683036 0.656026786,4.31850694 C0.347098214,5.11339782 0.135887897,6.02173115 0.0751736111,7.35184028 C0.014360119,8.68467758 2.48015873e-05,9.11017361 2.48015873e-05,12.5039236 C2.48015873e-05,15.8976736 0.014360119,16.3232192 0.0751736111,17.6560565 C0.135887897,18.9861161 0.347098214,19.894499 0.656026786,20.6893403 C0.975372024,21.5110169 1.40260417,22.2079415 2.09734623,22.9026339 C2.79203869,23.597376 3.48896329,24.0246081 4.31063988,24.344003 C5.10553075,24.6528819 6.01386409,24.8641419 7.34397321,24.9248562 C8.67676091,24.98562 9.10235615,25.000005 12.4960565,25.000005 C15.8898065,25.000005 16.3153026,24.98562 17.6481399,24.9248562 C18.978249,24.8641419 19.8865823,24.6528819 20.6814732,24.344003 C21.5031994,24.0246081 22.2000744,23.597376 22.8947669,22.9026339 C23.5895089,22.2079415 24.0167411,21.5110665 24.3360863,20.6893403 C24.6450149,19.894499 24.8562748,18.9861161 24.9169395,17.6560565 C24.977753,16.3232192 24.9921379,15.8976736 24.9921379,12.5039236 C24.9921379,9.11022321 24.977753,8.68467758 24.9169395,7.35184028 C24.8562748,6.02173115 24.6450149,5.11339782 24.3360863,4.31850694 C24.0167411,3.49683036 23.5895089,2.79995536 22.8947669,2.10521329 C22.2000744,1.41052083 21.5031994,0.983239087 20.6814732,0.663943452 C19.8865823,0.355014881 18.978249,0.14375496 17.6481399,0.0830902778 C16.3153026,0.0222767857 15.8898065,0.00789186508 12.4960565,0.00789186508 M12.4960565,2.25942956 C15.8326637,2.25942956 16.2278522,2.27212798 17.5455109,2.33224702 C18.7638641,2.38785218 19.4255208,2.59142361 19.8658482,2.76255456 C20.4491319,2.98924107 20.8654514,3.2600248 21.3027034,3.69727679 C21.7399554,4.13457837 22.0107391,4.55084821 22.2374752,5.13413194 C22.4085565,5.57445933 22.612128,6.23611607 22.6677331,7.45446925 C22.7278026,8.77212798 22.7405506,9.16736607 22.7405506,12.5039236 C22.7405506,15.8405308 22.7278026,16.2357688 22.6677331,17.553378 C22.612128,18.7717808 22.4085565,19.4334375 22.2374752,19.8737649 C22.0107391,20.456999 21.7399554,20.8733185 21.3027034,21.3105704 C20.8654514,21.747872 20.4491319,22.0186558 19.8658482,22.2453423 C19.4255208,22.4164236 18.7638641,22.6200446 17.5455109,22.6756002 C16.2280506,22.7357192 15.8329117,22.7484673 12.4960565,22.7484673 C9.15920139,22.7484673 8.7640625,22.7357192 7.44660218,22.6756002 C6.22824901,22.6200446 5.56654266,22.4164236 5.12621528,22.2453423 C4.54298115,22.0186558 4.12666171,21.747872 3.68940972,21.3105704 C3.25215774,20.8733185 2.9813244,20.456999 2.7546379,19.8737649 C2.58355655,19.4334375 2.37998512,18.7717808 2.32437996,17.5534276 C2.26426091,16.2357688 2.2515625,15.8405308 2.2515625,12.5039236 C2.2515625,9.16736607 2.26426091,8.77212798 2.32437996,7.45446925 C2.37998512,6.23611607 2.58355655,5.57445933 2.7546379,5.13413194 C2.9813244,4.55084821 3.25215774,4.13457837 3.68940972,3.69732639 C4.12666171,3.2600248 4.54298115,2.98924107 5.12621528,2.76255456 C5.56654266,2.59142361 6.22824901,2.38785218 7.44655258,2.33224702 C8.76426091,2.27212798 9.1594494,2.25942956 12.4960565,2.25942956" id="Fill-1"></path>
                    </g>
                    <path d="M12.5000242,16.5570201 C10.2594075,16.5570201 8.44297991,14.7405925 8.44297991,12.4999758 C8.44297991,10.2593592 10.2594075,8.44297991 12.5000242,8.44297991 C14.7406408,8.44297991 16.5570684,10.2593592 16.5570684,12.4999758 C16.5570684,14.7405925 14.7406408,16.5570201 12.5000242,16.5570201 M12.5000242,6.25 C9.04824643,6.25 6.25,9.04819811 6.25,12.4999758 C6.25,15.9518019 9.04824643,18.75 12.5000242,18.75 C15.9518019,18.75 18.75,15.9518019 18.75,12.4999758 C18.75,9.04819811 15.9518019,6.25 12.5000242,6.25" id="Fill-4"></path>
                    <path d="M20.8333333,5.72916667 C20.8333333,6.59213392 20.1338122,7.29166667 19.2708592,7.29166667 C18.4079062,7.29166667 17.7083333,6.59213392 17.7083333,5.72916667 C17.7083333,4.86619942 18.4079062,4.16666667 19.2708592,4.16666667 C20.1338122,4.16666667 20.8333333,4.86619942 20.8333333,5.72916667" id="Fill-6"></path>
                </g>
            </g>
        </g>
    </g>
</svg>