<?xml version="1.0" encoding="UTF-8"?>
<svg width="576px" height="576px" viewBox="0 0 576 576" version="1.1" xmlns="http://www.w3.org/2000/svg" xmlns:xlink="http://www.w3.org/1999/xlink">
    <!-- Generator: Sketch 53.2 (72643) - https://sketchapp.com -->
    <title>penstudiowhite copy</title>
    <desc>Created with Sketch.</desc>
    <defs>
        <polygon id="path-1" points="287.9998 0 0 0 0 576 287.9998 576 575.9996 576 575.9996 0"></polygon>
        <polygon id="path-3" points="0 0.2852 66.2825395 0.2852 66.2825395 39 0 39"></polygon>
    </defs>
    <g id="Development" stroke="none" stroke-width="1" fill="none" fill-rule="evenodd">
        <g id="penstudiowhite-copy">
            <g id="NoirID-Copy">
                <g id="Group-3">
                    <mask id="mask-2" fill="white">
                        <use xlink:href="#path-1"></use>
                    </mask>
                    <g id="Clip-2"></g>
                    <path d="M575.9996,288 C575.9996,447.058 447.0576,576 287.9996,576 C128.9416,576 -0.0004,447.058 -0.0004,288 C-0.0004,128.942 128.9416,0 287.9996,0 C447.0576,0 575.9996,128.942 575.9996,288" id="IDCircle" fill="#262626" mask="url(#mask-2)"></path>
                </g>
                <path d="M440.497729,285.753221 L557.09742,390.740054 C518.507236,491.749977 424.696047,565.406175 312.577483,574.883116 L87.8413717,350.185971 C86.8855396,349.230305 87.0279331,346.921877 88.2685523,343.260689 L141.3752,313.7808 L147.4672,309.3488 L440.497729,285.753221 Z" id="Path" fill="#161616"></path>
                <path d="M434.1658,302.1894 L434.0758,302.1894" id="Fill-10" fill="#F4F4F4"></path>
            </g>
            <g id="Group-12" transform="translate(86.000000, 206.000000)">
                <g id="Group-8" transform="translate(0.000000, 0.502000)">
                    <path d="M379.2957,85.5635 C393.1007,77.7585 402.4247,62.9565 402.4247,45.9655 C402.4247,20.8545 382.0677,0.4985 356.9567,0.4985 C356.8437,0.4985 356.7287,0.4975 356.6147,0.4985 C352.8967,0.4945 349.1257,0.9715 345.3717,1.9785 L150.5177,54.2555 C150.5177,54.2555 139.1507,57.4655 132.5827,61.2905 L60.8027,101.8725 L57.1497,103.9385 C59.5247,105.3415 66.8977,110.5425 70.2127,122.8945 C73.5247,135.2425 69.7477,143.4365 68.3937,145.8415 L72.5887,145.8015 L148.8437,145.0645 C148.8437,145.0645 163.4497,144.7515 175.8317,141.6255 L368.9437,89.8445 C372.1947,88.9725 375.2537,87.7385 378.1077,86.2135 C378.3737,86.0735 379.1647,85.6385 379.2957,85.5635" id="Fill-1" fill="#F4F4F4"></path>
                    <g id="Group-5" transform="translate(0.000000, 107.000000)">
                        <mask id="mask-4" fill="white">
                            <use xlink:href="#path-3"></use>
                        </mask>
                        <g id="Clip-4"></g>
                        <path d="M52.9998,0.2852 L17.8518,19.8292 L3.1398,28.0032 C1.2738,28.9742 -0.0002,30.9262 -0.0002,33.1742 C-0.0002,36.3912 2.6078,39.0002 5.8258,39.0002 L22.9158,38.6992 L63.1238,38.0272 C63.1238,38.0272 68.6018,30.1992 65.1298,17.2592 C61.6598,4.3212 52.9998,0.2852 52.9998,0.2852" id="Fill-3" fill="#F4F4F4" mask="url(#mask-4)"></path>
                    </g>
                    <path d="M376.4294,13.4503 L376.4294,13.4503 C381.7454,21.0283 379.2454,29.0043 370.8444,31.2623 L158.9174,88.3463 C150.5174,90.6043 136.6034,87.0793 131.2874,79.5013 C125.9704,71.9223 131.2634,63.1593 139.6644,60.9003 L351.5904,3.8173 C359.9924,1.5583 371.1124,5.8713 376.4294,13.4503" id="Fill-6" fill="#E0E0E0"></path>
                </g>
            </g>
        </g>
    </g>
</svg>