<?xml version="1.0" encoding="UTF-8"?>
<svg width="140px" height="140px" viewBox="0 0 140 140" version="1.1" xmlns="http://www.w3.org/2000/svg" xmlns:xlink="http://www.w3.org/1999/xlink">
    <!-- Generator: Sketch 52.5 (67469) - http://www.bohemiancoding.com/sketch -->
    <title>paypal</title>
    <desc>Created with Sketch.</desc>
    <g id="Website" stroke="none" stroke-width="1" fill="none" fill-rule="evenodd">
        <g id="12.9″-iPad-Pro" transform="translate(-1515.000000, -1426.000000)">
            <g id="paypal" transform="translate(1515.000000, 1426.000000)">
                <circle id="Oval-Copy-6" fill="#262626" cx="70" cy="70" r="70"></circle>
                <g id="paypalstacked" transform="translate(47.000000, 42.000000)" fill="#FFFFFF">
                    <path d="M42.2047632,14.219933 C42.8785329,9.8732067 42.200125,6.91553073 39.8764079,4.23660335 C37.318,1.28706145 32.6962303,0.0234636872 26.7828882,0.0234636872 L9.61799342,0.0234636872 C8.40928947,0.0234636872 7.38023684,0.913206704 7.19192763,2.12111732 L0.0445263158,47.9785475 C-0.0964736842,48.8833073 0.594611842,49.7014078 1.49998026,49.7014078 L12.096625,49.7014078 L11.3653421,54.3941453 C11.2419671,55.1856536 11.8464737,55.9014525 12.6386711,55.9014525 L21.5705263,55.9014525 C22.6277171,55.9014525 23.5278289,55.1230838 23.6926382,54.0665922 L23.7801447,53.6073296 L25.4628684,42.8118436 L25.5714013,42.2152402 C25.7359013,41.1587486 26.6360132,40.3803799 27.6932039,40.3803799 L29.0296118,40.3803799 C37.6825592,40.3803799 44.4579803,36.8232849 46.4378553,26.5368045 C47.2649934,22.238257 46.8373553,18.6505028 44.6496908,16.1283128 C43.9879803,15.3652737 43.1648618,14.7345698 42.2047632,14.219933" id="Fill-11" fill-opacity="0.6"></path>
                    <path d="M39.8764079,4.23660335 C37.318,1.28706145 32.6962303,0.0234636872 26.7828882,0.0234636872 L9.61799342,0.0234636872 C8.40928947,0.0234636872 7.38023684,0.913206704 7.19192763,2.12111732 L0.0445263158,47.9785475 C-0.0964736842,48.8833073 0.594611842,49.7014078 1.49998026,49.7014078 L12.096625,49.7014078 L14.7586184,32.6235978 L14.6760592,33.1588827 C14.8643684,31.9512849 15.8847632,31.0615419 17.0931579,31.0615419 L22.1295789,31.0615419 C32.0209145,31.0615419 39.7660197,26.9957542 42.0291316,15.2370056 C42.0962303,14.8888045 42.1534342,14.5515531 42.2047632,14.219933 C42.8785329,9.8732067 42.200125,6.91553073 39.8764079,4.23660335 Z" id="Fill-12" fill-opacity="0.65"></path>
                    <path d="M17.6181974,14.2778101 C17.7313684,13.5510615 18.1920921,12.9563352 18.8126776,12.6553743 C19.0946776,12.5186592 19.4097632,12.4426369 19.7403092,12.4426369 L33.1952961,12.4426369 C34.7892763,12.4426369 36.2753421,12.548067 37.6343224,12.7695642 C38.0226908,12.8327598 38.4005461,12.9056536 38.7675789,12.987933 C39.1346118,13.0705251 39.4908224,13.1625028 39.8359013,13.2648045 C40.0084408,13.315486 40.1778882,13.3689832 40.3448618,13.4249832 C41.0118289,13.6492961 41.6330329,13.9136536 42.2047632,14.219933 C42.8785329,9.8732067 42.200125,6.91553073 39.8764079,4.23660335 C37.318,1.28706145 32.6962303,0.0234636872 26.7828882,0.0234636872 L9.61799342,0.0234636872 C8.40928947,0.0234636872 7.38023684,0.913206704 7.19192763,2.12111732 L0.0445263158,47.9785475 C-0.0964736842,48.8833073 0.594611842,49.7014078 1.49998026,49.7014078 L12.096625,49.7014078 L17.6181974,14.2778101" id="Fill-13"></path>
                </g>
            </g>
        </g>
    </g>
</svg>