<?xml version="1.0" encoding="UTF-8"?>
<svg width="202px" height="74px" viewBox="0 0 202 74" version="1.1" xmlns="http://www.w3.org/2000/svg" xmlns:xlink="http://www.w3.org/1999/xlink">
    <!-- Generator: Sketch 53.2 (72643) - https://sketchapp.com -->
    <title>Group 12</title>
    <desc>Created with Sketch.</desc>
    <defs>
        <polygon id="path-1" points="0 0.1426 33.1412697 0.1426 33.1412697 19.5 0 19.5"></polygon>
    </defs>
    <g id="Development" stroke="none" stroke-width="1" fill="none" fill-rule="evenodd">
        <g id="penstudioblack-copy" transform="translate(-43.000000, -103.000000)">
            <g id="Group-12" transform="translate(43.000000, 103.000000)">
                <g id="Group-8" transform="translate(0.000000, 0.251000)">
                    <path d="M189.64785,42.78175 C196.55035,38.87925 201.21235,31.47825 201.21235,22.98275 C201.21235,10.42725 191.03385,0.24925 178.47835,0.24925 C178.42185,0.24925 178.36435,0.24875 178.30735,0.24925 C176.44835,0.24725 174.56285,0.48575 172.68585,0.98925 L75.25885,27.12775 C75.25885,27.12775 69.57535,28.73275 66.29135,30.64525 L30.40135,50.93625 L28.57485,51.96925 C29.76235,52.67075 33.44885,55.27125 35.10635,61.44725 C36.76235,67.62125 34.87385,71.71825 34.19685,72.92075 L36.29435,72.90075 L74.42185,72.53225 C74.42185,72.53225 81.72485,72.37575 87.91585,70.81275 L184.47185,44.92225 C186.09735,44.48625 187.62685,43.86925 189.05385,43.10675 C189.18685,43.03675 189.58235,42.81925 189.64785,42.78175" id="Fill-1" fill="#1E1E1E"></path>
                    <g id="Group-5" transform="translate(0.000000, 53.500000)">
                        <mask id="mask-2" fill="white">
                            <use xlink:href="#path-1"></use>
                        </mask>
                        <g id="Clip-4"></g>
                        <path d="M26.4999,0.1426 L8.9259,9.9146 L1.5699,14.0016 C0.6369,14.4871 -0.0001,15.4631 -0.0001,16.5871 C-0.0001,18.1956 1.3039,19.5001 2.9129,19.5001 L11.4579,19.3496 L31.5619,19.0136 C31.5619,19.0136 34.3009,15.0996 32.5649,8.6296 C30.8299,2.1606 26.4999,0.1426 26.4999,0.1426" id="Fill-3" fill="#1E1E1E" mask="url(#mask-2)"></path>
                    </g>
                    <path d="M188.2147,6.72515 L188.2147,6.72515 C190.8727,10.51415 189.6227,14.50215 185.4222,15.63115 L79.4587,44.17315 C75.2587,45.30215 68.3017,43.53965 65.6437,39.75065 C62.9852,35.96115 65.6317,31.57965 69.8322,30.45015 L175.7952,1.90865 C179.9962,0.77915 185.5562,2.93565 188.2147,6.72515" id="Fill-6" fill="#383838"></path>
                </g>
            </g>
        </g>
    </g>
</svg>