<?xml version="1.0" encoding="UTF-8"?>
<svg width="70px" height="70px" viewBox="0 0 70 70" version="1.1" xmlns="http://www.w3.org/2000/svg" xmlns:xlink="http://www.w3.org/1999/xlink">
    <!-- Generator: Sketch 47 (45396) - http://www.bohemiancoding.com/sketch -->
    <title>Buttons/RedBubble</title>
    <desc>Created with Sketch.</desc>
    <defs>
        <polygon id="path-1" points="15.396109 0.0895350157 15.396109 20.6100006 0.0680768449 20.6100006 0.0680768449 0.0895350157"></polygon>
    </defs>
    <g id="Tablet-v1.1" stroke="none" stroke-width="1" fill="none" fill-rule="evenodd">
        <g id="iPad-Pro" transform="translate(-755.000000, -623.000000)">
            <g id="Group" transform="translate(753.000000, 623.000000)">
                <g id="Buttons/RedBubble" transform="translate(2.000000, 0.000000)">
                    <g>
                        <g id="Instagram-Copy-3" fill="#262626">
                            <circle id="Oval-Copy" cx="35" cy="35" r="35"></circle>
                        </g>
                        <g id="Page-1" transform="translate(19.000000, 25.000000)">
                            <path d="M15.6593263,7.67757545 C15.6652208,7.77286304 15.5756465,7.85076322 15.6091646,7.95119839 C15.5674403,7.96423895 15.5538019,7.99546766 15.5464048,8.03573324 C15.3799699,8.9562365 15.0112704,9.79357761 14.4844578,10.5658303 L14.4823774,10.5700628 C14.4674676,10.5941992 14.4526734,10.6181069 14.4377636,10.6420146 L14.4423868,10.6360663 C14.1936591,10.9062575 13.9451626,11.1762199 13.6965505,11.4462968 L13.6967816,11.4462968 C13.5772722,11.4953705 13.4837681,11.5754441 13.4094503,11.6788534 L13.4104905,11.6777095 C12.9878153,11.9352033 12.5814368,12.22221 12.1143789,12.4011173 C11.9358082,12.4696374 12.0642173,12.5442203 12.1118362,12.6062201 C12.5821303,13.2185544 13.0505751,13.8326045 13.5295377,14.4381898 C13.7945621,14.7731262 14.0118521,15.1474131 14.344953,15.4273275 C14.3469179,15.4432279 14.3558175,15.4531799 14.3711896,15.4571835 C14.5511474,15.7163932 14.720934,15.9832671 14.9125653,16.2341263 C15.6781658,17.2334448 16.4503542,18.2283022 17.2203467,19.224189 C17.6788517,19.8173056 17.613318,20.2118397 16.9905741,20.6024845 C16.9905741,20.6024845 16.9962375,20.600883 16.9961219,20.600883 C16.8617027,20.6038572 16.7275145,20.6098055 16.5930953,20.6098055 C12.3503928,20.6100343 8.1076904,20.6102631 3.86498796,20.6092336 C2.76605545,20.6092336 1.66677619,20.6052299 0.567612517,20.6027133 C0.567612517,20.6027133 0.57604984,20.606145 0.575934261,20.606145 C0.529124451,20.5392263 0.458158468,20.555813 0.392277996,20.5544403 L0.395976549,20.5566138 C0.362342834,20.4591527 0.264677922,20.4260938 0.196832594,20.3630644 L0.190822445,20.3539131 C0.163661198,20.3235996 0.13661553,20.2929428 0.109685442,20.2626292 L0.113961894,20.2669761 C0.0425335921,20.0690799 -0.000115345459,19.8679808 2.34317854e-07,19.6554425 C0.00184951074,13.5597823 0.00161835119,7.46412211 0.00161835119,1.3682331 C0.00161835119,1.06361024 -0.00947730735,0.758644201 0.0517799742,0.457109891 L0.0491216393,0.460884789 C0.105293411,0.439379307 0.109916602,0.392250272 0.109569862,0.342261466 L0.106564788,0.346608319 C0.169209027,0.278888929 0.231853266,0.21128393 0.294613085,0.143335758 L0.30224135,0.135785961 C0.510053788,0.0211663181 0.732660437,-0.000339163847 0.968558761,4.00873706e-06 C3.47294136,0.00503720664 5.97743954,0.00263499855 8.48205329,0.00400768889 C9.22580915,0.00423647061 9.95789146,0.103070175 10.6835013,0.261959081 C11.6536779,0.474611693 12.5301194,0.892023946 13.3498112,1.43698201 L13.3484242,1.43515176 C13.4449333,1.55423264 13.5580859,1.65409586 13.6975907,1.72227282 L13.6962037,1.72044256 C13.7788433,1.84284079 13.887026,1.93950106 14.0060731,2.02563738 C14.0060731,2.02563738 14.0251438,2.04474066 14.0252594,2.04474066 C15.3627485,3.52553036 15.7702828,5.29195404 15.6612911,7.22229982 C15.6527382,7.37135112 15.5224798,7.52703708 15.6593263,7.67757545" id="Fill-1" fill="#FEFDFD"></path>
                            <g id="Group-5" transform="translate(18.549001, 0.000000)">
                                <mask id="mask-2" fill="white">
                                    <use xlink:href="#path-1"></use>
                                </mask>
                                <g id="Clip-4"></g>
                                <path d="M15.3865714,15.4280543 C15.3623436,15.5552442 15.3386641,15.6823203 15.3148749,15.809624 C15.1651235,16.370421 15.0125218,16.9265494 14.7399874,17.4441906 C14.3887404,18.1106566 13.8870842,18.6329664 13.3465102,19.1251013 L13.3479353,19.122824 C13.0057874,19.3195868 12.6883057,19.5587084 12.3324543,19.7329255 C11.104186,20.3347148 9.79808199,20.5831734 8.45558163,20.5969514 C6.11448289,20.6207497 3.77283602,20.6049221 1.43129877,20.6043528 C1.06218243,20.6043528 0.689229116,20.6422706 0.332719957,20.4982284 C0.288759264,20.4557558 0.244908199,20.4132833 0.201386017,20.3708107 C0.21574724,20.2970247 0.193492825,20.2416851 0.126510323,20.2083219 L0.127716227,20.2112825 C0.0862769706,20.0552842 0.0678595233,19.8978055 0.0680787786,19.7345197 C0.0699424489,13.4730648 0.0692846829,7.21161001 0.0697231936,0.950155188 C0.0699424489,0.367267934 0.333268095,0.0928474834 0.888093697,0.0928474834 C3.16582765,0.0926197486 5.44367123,0.0838519583 7.72140518,0.095808036 C9.41361778,0.104689694 11.004644,0.453351693 12.3066918,1.68687731 L12.3050474,1.68414449 C12.324013,1.70452676 12.3430882,1.72456742 12.3619441,1.74483582 L12.3589842,1.74164753 C12.3617249,1.77854057 12.3794846,1.79983378 12.4161002,1.80222499 L12.412921,1.80120019 C13.4260999,3.03950823 13.7264797,4.50281828 13.6828479,6.08181761 C13.6721043,6.47978419 13.5817711,6.86659177 13.5751935,7.26319195 C13.5710276,7.28425742 13.5665329,7.30543676 13.5624767,7.32650223 C13.385428,7.82991003 13.222302,8.33958055 12.9628134,8.80712012 L12.9640193,8.80586758 C12.8683143,8.90424902 12.7844492,9.01105664 12.7413655,9.14655886 L12.7422425,9.14633112 C12.5232064,9.28365521 12.5353751,9.38169505 12.7741442,9.48781947 C12.9738858,9.57652218 13.1659534,9.6914144 13.3460717,9.81837656 C14.5524145,10.6702186 15.1165584,11.9093237 15.3277013,13.3656879 C15.4268047,14.0524222 15.3901891,14.7399536 15.3865714,15.4280543" id="Fill-3" fill="#FEFDFD" mask="url(#mask-2)"></path>
                            </g>
                        </g>
                    </g>
                </g>
            </g>
        </g>
    </g>
</svg>