<?xml version="1.0" encoding="UTF-8"?>
<svg width="289px" height="289px" viewBox="0 0 289 289" version="1.1" xmlns="http://www.w3.org/2000/svg" xmlns:xlink="http://www.w3.org/1999/xlink">
    <title>Group 10</title>
    <g id="Website-penstud.io" stroke="none" stroke-width="1" fill="none" fill-rule="evenodd">
        <g id="12.9″-iPad-Pro-Copy-2" transform="translate(-106.000000, -229.000000)">
            <g id="Group-10" transform="translate(106.000000, 229.000000)">
                <path d="M220.895994,143.120759 L273.569511,190.546621 C255.194755,242.046969 206.870989,279.324084 149.568189,281.407991 L43.6494394,175.504928 C43.1690342,175.024606 43.2406018,173.864381 43.8641422,172.024253 L70.5557646,157.207537 L73.6176292,154.979996 L220.895994,143.120759 Z" id="Combined-Shape" fill-opacity="0.3" fill="#161616"></path>
                <path d="M144.5,0 C224.305146,0 289,64.6948537 289,144.5 C289,224.305146 224.305146,289 144.5,289 C64.6948537,289 0,224.305146 0,144.5 C0,64.6948537 64.6948537,0 144.5,0 Z M144.5,7.5 C68.8369893,7.5 7.5,68.8369893 7.5,144.5 C7.5,220.163011 68.8369893,281.5 144.5,281.5 C220.163011,281.5 281.5,220.163011 281.5,144.5 C281.5,68.8369893 220.163011,7.5 144.5,7.5 Z" id="Oval" fill-opacity="0" fill="#FFFFFF" fill-rule="nonzero"></path>
            </g>
        </g>
    </g>
</svg>