<?xml version="1.0" encoding="UTF-8"?>
<svg width="70px" height="70px" viewBox="0 0 70 70" version="1.1" xmlns="http://www.w3.org/2000/svg" xmlns:xlink="http://www.w3.org/1999/xlink">
    <!-- Generator: Sketch 46.2 (44496) - http://www.bohemiancoding.com/sketch -->
    <title>Twitter</title>
    <desc>Created with Sketch.</desc>
    <defs>
        <polygon id="path-1" points="1.25767452e-20 1.17647059e-05 1.25767452e-20 23.9032941 28.999942 23.9032941 28.999942 1.17647059e-05"></polygon>
    </defs>
    <g id="Page-1" stroke="none" stroke-width="1" fill="none" fill-rule="evenodd">
        <g id="iPad-Pro" transform="translate(-703.000000, -623.000000)">
            <g id="Twitter" transform="translate(703.000000, 623.000000)">
                <circle id="Oval-Copy-3" fill="#262626" cx="35" cy="35" r="35"></circle>
                <g id="Page-1" transform="translate(21.000000, 23.000000)">
                    <mask id="mask-2" fill="white">
                        <use xlink:href="#path-1"></use>
                    </mask>
                    <g id="Clip-2"></g>
                    <path d="M9.120326,23.9033059 C20.064114,23.9033059 26.048786,14.7078941 26.048786,6.73436471 C26.048786,6.47307059 26.043566,6.21295294 26.03185,5.95424706 C27.193474,5.1026 28.203254,4.03989412 28.999942,2.82989412 C27.933902,3.31012941 26.786546,3.63389412 25.583162,3.77989412 C26.811486,3.03295294 27.754682,1.85083529 28.199426,0.441894118 C27.049518,1.13307059 25.776766,1.63589412 24.421538,1.90648235 C23.335778,0.733658824 21.789498,1.17647059e-05 20.078498,1.17647059e-05 C16.79245,1.17647059e-05 14.127814,2.70248235 14.127814,6.03389412 C14.127814,6.50754118 14.18013,6.96789412 14.28221,7.40977647 C9.337478,7.15765882 4.952562,4.75624706 2.018458,1.10518824 C1.507014,1.99671765 1.212606,3.03295294 1.212606,4.13812941 C1.212606,6.23165882 2.263102,8.07977647 3.860306,9.16095294 C2.884398,9.13048235 1.967418,8.85848235 1.16551,8.40601176 C1.164234,8.43130588 1.164234,8.45648235 1.164234,8.48295294 C1.164234,11.4057765 3.215346,13.8455412 5.937634,14.3988353 C5.437906,14.5367176 4.912078,14.6110706 4.369198,14.6110706 C3.985818,14.6110706 3.612994,14.5726 3.250726,14.5022471 C4.00809,16.8996588 6.204434,18.6442471 8.808982,18.6934235 C6.772138,20.3120118 4.206914,21.2764824 1.419318,21.2764824 C0.939194,21.2764824 0.465682,21.2486 -5.8e-05,21.1928353 C2.633258,22.9043647 5.75969,23.9033059 9.120326,23.9033059" id="Fill-1" fill="#F4F4F4" mask="url(#mask-2)"></path>
                </g>
            </g>
        </g>
    </g>
</svg>