<?xml version="1.0" encoding="UTF-8"?>
<svg width="289px" height="289px" viewBox="0 0 289 289" version="1.1" xmlns="http://www.w3.org/2000/svg" xmlns:xlink="http://www.w3.org/1999/xlink">
    <title>YouTubeID Copy 6</title>
    <defs>
        <polygon id="path-1" points="143.9999 0 0 0 0 288 143.9999 288 287.9998 288 287.9998 0"></polygon>
        <polygon id="path-3" points="0 0.143570068 33.2235061 0.143570068 33.2235061 19.6326531 0 19.6326531"></polygon>
    </defs>
    <g id="Website-penstud.io" stroke="none" stroke-width="1" fill="none" fill-rule="evenodd">
        <g id="12.9″-iPad-Pro-Copy-2" transform="translate(-549.000000, -405.000000)">
            <g id="YouTubeID-Copy-6" transform="translate(549.000000, 405.000000)">
                <g id="Group-3" transform="translate(0.500000, 0.500000)">
                    <mask id="mask-2" fill="white">
                        <use xlink:href="#path-1"></use>
                    </mask>
                    <g id="Clip-2"></g>
                    <path d="M287.9998,144 C287.9998,223.529 223.5288,288 143.9998,288 C64.4708,288 -0.0002,223.529 -0.0002,144 C-0.0002,64.471 64.4708,0 143.9998,0 C223.5288,0 287.9998,64.471 287.9998,144" id="IDCircle" mask="url(#mask-2)"></path>
                </g>
                <path d="M220.895994,143.120759 L279.499484,195.887579 C260.103897,246.655587 212.954003,283.675499 156.602745,288.43865 L43.6494394,175.504928 C43.1690342,175.024606 43.2406018,173.864381 43.8641422,172.024253 L70.5557646,157.207537 L73.6176292,154.979996 L220.895994,143.120759 Z" id="Path" fill-opacity="0.3" fill="#161616"></path>
                <g id="Group-12" transform="translate(43.000000, 103.000000)">
                    <g id="Group-8" transform="translate(0.000000, 0.252707)">
                        <path d="M190.11844,43.0727823 C197.038068,39.1437347 201.711636,31.6923878 201.711636,23.1390952 C201.711636,10.4981837 191.507879,0.250721844 178.921224,0.250721844 C178.864584,0.250721844 178.806941,0.250721844 178.7498,0.250721844 C176.886187,0.248931973 174.996008,0.489054422 173.114351,0.995979592 L75.4455965,27.3122925 C75.4455965,27.3122925 69.7479935,28.9282109 66.4558447,30.8537211 L30.4767876,51.2827551 L28.6457553,52.3227823 C29.836202,53.0290544 33.5318496,55.6472449 35.1934625,61.8652585 C36.8535717,68.0812585 34.9603856,72.2061293 34.2817057,73.4168095 L36.3844104,73.3966735 L74.6065196,73.0256667 C74.6065196,73.0256667 81.9276412,72.868102 88.1340035,71.2944694 L184.929597,45.2278435 C186.55913,44.7888776 188.092425,44.1676803 189.522966,43.3999932 C189.656296,43.329517 190.052778,43.1105374 190.11844,43.0727823" id="Fill-1" fill="#F4F4F4"></path>
                        <g id="Group-5" transform="translate(0.000000, 53.863946)">
                            <mask id="mask-4" fill="white">
                                <use xlink:href="#path-3"></use>
                            </mask>
                            <g id="Clip-4"></g>
                            <path d="M26.5656566,0.143570068 L8.94804864,9.98204626 L1.57379553,14.096849 C0.638480397,14.5856517 -0.000100248139,15.5682912 -0.000100248139,16.6999374 C-0.000100248139,18.3193796 1.30713548,19.6327537 2.92012804,19.6327537 L11.4863315,19.4812299 L31.6402174,19.1429442 C31.6402174,19.1429442 34.3860139,15.2023184 32.6457062,8.68830476 C30.906401,2.17529796 26.5656566,0.143570068 26.5656566,0.143570068" id="Fill-3" fill="#F4F4F4" mask="url(#mask-4)"></path>
                        </g>
                        <path d="M188.681734,6.77089932 L188.681734,6.77089932 C191.34633,10.5856748 190.093228,14.6008041 185.882305,15.7374844 L79.655868,44.4736476 C75.4454462,45.6103279 68.4711831,43.8358381 65.8065876,40.0210626 C63.1414908,36.2057837 65.7945578,31.7944776 70.0054809,30.6572939 L176.231416,1.92163401 C180.442841,0.78445034 186.016637,2.95562041 188.681734,6.77089932" id="Fill-6" fill="#E0E0E0"></path>
                    </g>
                </g>
                <circle id="Oval" stroke="#FFFFFF" stroke-width="7.5" cx="144.5" cy="144.5" r="140.75"></circle>
            </g>
        </g>
    </g>
</svg>