<?xml version="1.0" encoding="UTF-8"?>
<svg width="70px" height="70px" viewBox="0 0 70 70" version="1.1" xmlns="http://www.w3.org/2000/svg" xmlns:xlink="http://www.w3.org/1999/xlink">
    <!-- Generator: Sketch 46.2 (44496) - http://www.bohemiancoding.com/sketch -->
    <title>YouTube</title>
    <desc>Created with Sketch.</desc>
    <defs>
        <polygon id="path-1" points="34 11.9999903 34 0 0 0 0 11.9999903 0 23.9999806 34 23.9999806"></polygon>
    </defs>
    <g id="Page-1" stroke="none" stroke-width="1" fill="none" fill-rule="evenodd">
        <g id="iPad-Pro" transform="translate(-703.000000, -733.000000)">
            <g id="YouTube" transform="translate(703.000000, 733.000000)">
                <circle id="Oval-Copy-6" fill="#262626" cx="35" cy="35" r="35"></circle>
                <g id="Page-1" transform="translate(18.000000, 23.000000)">
                    <mask id="mask-2" fill="white">
                        <use xlink:href="#path-1"></use>
                    </mask>
                    <g id="Clip-2"></g>
                    <path d="M13.5227273,17.0649484 L13.5227273,6.9350129 L22.4090909,12.0001742 L13.5227273,17.0649484 Z M33.2894773,3.74765806 C32.8984773,2.27243226 31.7463409,1.11075484 30.2835682,0.716496774 C27.6321477,-1.93548387e-05 17,-1.93548387e-05 17,-1.93548387e-05 C17,-1.93548387e-05 6.36785227,-1.93548387e-05 3.71643182,0.716496774 C2.25365909,1.11075484 1.10152273,2.27243226 0.710522727,3.74765806 C0,6.42133548 0,11.9999806 0,11.9999806 C0,11.9999806 0,17.5784323 0.710522727,20.2523032 C1.10152273,21.727529 2.25365909,22.8892065 3.71643182,23.2836581 C6.36785227,23.9999806 17,23.9999806 17,23.9999806 C17,23.9999806 27.6321477,23.9999806 30.2835682,23.2836581 C31.7463409,22.8892065 32.8984773,21.727529 33.2894773,20.2523032 C34,17.5784323 34,11.9999806 34,11.9999806 C34,11.9999806 34,6.42133548 33.2894773,3.74765806 L33.2894773,3.74765806 Z" id="Fill-1" fill="#F4F4F4" mask="url(#mask-2)"></path>
                </g>
            </g>
        </g>
    </g>
</svg>