<?xml version="1.0" encoding="UTF-8"?>
<svg width="70px" height="70px" viewBox="0 0 70 70" version="1.1" xmlns="http://www.w3.org/2000/svg" xmlns:xlink="http://www.w3.org/1999/xlink">
    <title>Group 15</title>
    <g id="Website-penstud.io" stroke="none" stroke-width="1" fill="none" fill-rule="evenodd">
        <g id="12.9″-iPad-Pro-Copy-2" transform="translate(-1119.000000, -725.000000)">
            <g id="Group-15" transform="translate(1119.000000, 725.000000)">
                <circle id="Oval-Copy-9" fill-opacity="0.04" fill="#262626" cx="35" cy="35" r="35"></circle>
                <g id="YTBlack" transform="translate(16.000000, 16.000000)">
                    <rect id="Rectangle" fill-opacity="0" fill="#FFFFFF" x="0" y="0" width="38" height="38"></rect>
                    <path d="M32.2835682,7.71651613 C29.6321477,7 19,7 19,7 C19,7 8.36785227,7 5.71643182,7.71651613 C4.25365909,8.11077419 3.10152273,9.27245161 2.71052273,10.7476774 C2,13.4213548 2,19 2,19 C2,19 2,24.5784516 2.71052273,27.2523226 C3.10152273,28.7275484 4.25365909,29.8892258 5.71643182,30.2836774 C8.36785227,31 19,31 19,31 C19,31 29.6321477,31 32.2835682,30.2836774 C33.7463409,29.8892258 34.8984773,28.7275484 35.2894773,27.2523226 C36,24.5784516 36,19 36,19 C36,19 36,13.4213548 35.2894773,10.7476774 C34.8984773,9.27245161 33.7463409,8.11077419 32.2835682,7.71651613 Z" id="Fill-1-Copy" stroke="#FFFFFF" stroke-width="2.5"></path>
                    <polygon id="Path" fill="#FFFFFF" points="15.5227273 24.0649677 15.5227273 13.9350323 24.4090909 19.0001935"></polygon>
                </g>
            </g>
        </g>
    </g>
</svg>